<svg xmlns="http://www.w3.org/2000/svg" viewBox="0 0 234.003 234.003">
  <g transform="matrix(11.700133, 0, 0, 11.700133, -9481.121376, -1849.767877)">
    <path d="M 830.343 168.098 C 830.343 173.621 825.866 178.098 820.343 178.098 C 814.821 178.098 810.343 173.621 810.343 168.098 C 810.343 162.575 814.821 158.098 820.343 158.098 C 825.866 158.098 830.343 162.575 830.343 168.098 Z" style="opacity: 0.51; fill: rgb(255, 255, 255);"></path>
    <path d="M 825.592 174.977 C 824.169 176.255 822.128 176.598 820.343 176.598 C 818.559 176.598 816.904 176.048 815.536 175.109 C 814.933 174.694 815.295 172.436 815.647 171.793 C 816.374 170.46 817.309 169.066 820.399 169.066 C 823.49 169.066 824.368 170.347 825.096 171.68 C 825.447 172.323 826.137 174.487 825.592 174.977 Z" style="opacity: 0.5;"></path>
    <path d="M 820.343 168.098 C 822 168.098 823.343 166.755 823.343 165.098 C 823.343 163.441 822 162.098 820.343 162.098 C 818.687 162.098 817.343 163.441 817.343 165.098 C 817.343 166.755 818.687 168.098 820.343 168.098 Z" style="opacity: 0.5;"></path>
  </g>
</svg>
